<svg xmlns="http://www.w3.org/2000/svg" width="183.22" height="35" viewBox="0 0 183.22 35"><rect class="svg__rect" x="0" y="0" width="55.28" height="35" fill="#FFFFFF"/><rect class="svg__rect" x="53.28" y="0" width="129.94" height="35" fill="#FFFFFF"/><path class="svg__text" d="M15.70 22L14.22 22L14.22 13.47L19.64 13.47L19.64 14.66L15.70 14.66L15.70 17.20L19.13 17.20L19.13 18.38L15.70 18.38L15.70 22ZM23.53 18.00L23.53 18.00L23.53 17.52Q23.53 16.28 23.97 15.32Q24.41 14.37 25.22 13.86Q26.02 13.35 27.07 13.35Q28.11 13.35 28.92 13.85Q29.72 14.35 30.16 15.29Q30.60 16.23 30.61 17.48L30.61 17.48L30.61 17.96Q30.61 19.21 30.17 20.16Q29.74 21.10 28.93 21.61Q28.13 22.12 27.08 22.12L27.08 22.12Q26.04 22.12 25.23 21.61Q24.42 21.10 23.98 20.17Q23.53 19.23 23.53 18.00ZM25.01 17.46L25.01 17.96Q25.01 19.36 25.56 20.13Q26.11 20.90 27.08 20.90L27.08 20.90Q28.06 20.90 28.59 20.15Q29.12 19.40 29.12 17.96L29.12 17.96L29.12 17.51Q29.12 16.09 28.59 15.34Q28.05 14.58 27.07 14.58L27.07 14.58Q26.11 14.58 25.56 15.33Q25.02 16.09 25.01 17.46L25.01 17.46ZM36.55 22L35.07 22L35.07 13.47L38.07 13.47Q39.55 13.47 40.35 14.13Q41.15 14.79 41.15 16.05L41.15 16.05Q41.15 16.90 40.74 17.48Q40.33 18.06 39.59 18.37L39.59 18.37L41.50 21.92L41.50 22L39.92 22L38.21 18.71L36.55 18.71L36.55 22ZM36.55 14.66L36.55 17.52L38.08 17.52Q38.83 17.52 39.25 17.15Q39.67 16.77 39.67 16.11L39.67 16.11Q39.67 15.43 39.28 15.05Q38.89 14.68 38.12 14.66L38.12 14.66L36.55 14.66Z" fill="#3BC4F3"/><path class="svg__text" d="M74.58 22L67.05 22L67.05 20.51L71.29 15.48L67.16 15.48L67.16 13.60L74.39 13.60L74.39 15.09L70.16 20.11L74.58 20.11L74.58 22ZM78.67 17.80L78.67 17.80Q78.67 16.55 79.27 15.55Q79.88 14.56 80.94 14.00Q82.00 13.43 83.34 13.43L83.34 13.43Q84.67 13.43 85.73 14.00Q86.79 14.56 87.40 15.55Q88.00 16.55 88.00 17.80L88.00 17.80Q88.00 19.05 87.40 20.04Q86.79 21.04 85.73 21.60Q84.67 22.17 83.34 22.17L83.34 22.17Q82.00 22.17 80.94 21.60Q79.88 21.04 79.27 20.04Q78.67 19.05 78.67 17.80ZM81.07 17.80L81.07 17.80Q81.07 18.51 81.37 19.05Q81.67 19.60 82.19 19.90Q82.70 20.20 83.34 20.20L83.34 20.20Q83.97 20.20 84.49 19.90Q85.00 19.60 85.30 19.05Q85.60 18.51 85.60 17.80L85.60 17.80Q85.60 17.09 85.30 16.54Q85.00 16 84.49 15.70Q83.97 15.40 83.34 15.40L83.34 15.40Q82.70 15.40 82.18 15.70Q81.67 16 81.37 16.54Q81.07 17.09 81.07 17.80ZM94.53 15.48L91.94 15.48L91.94 13.60L99.47 13.60L99.47 15.48L96.90 15.48L96.90 22L94.53 22L94.53 15.48ZM110.58 22L103.84 22L103.84 13.60L110.43 13.60L110.43 15.44L106.19 15.44L106.19 16.85L109.92 16.85L109.92 18.63L106.19 18.63L106.19 20.17L110.58 20.17L110.58 22ZM117.76 22L115.39 22L115.39 13.60L119.23 13.60Q120.37 13.60 121.21 13.98Q122.05 14.35 122.50 15.06Q122.96 15.76 122.96 16.71L122.96 16.71Q122.96 17.62 122.53 18.30Q122.11 18.98 121.32 19.36L121.32 19.36L123.13 22L120.58 22L119.06 19.77L117.76 19.77L117.76 22ZM117.76 15.47L117.76 17.93L119.08 17.93Q119.82 17.93 120.19 17.61Q120.56 17.29 120.56 16.71L120.56 16.71Q120.56 16.12 120.19 15.79Q119.82 15.47 119.08 15.47L119.08 15.47L117.76 15.47ZM127.32 17.80L127.32 17.80Q127.32 16.55 127.92 15.55Q128.53 14.56 129.59 14.00Q130.66 13.43 131.99 13.43L131.99 13.43Q133.32 13.43 134.38 14.00Q135.44 14.56 136.05 15.55Q136.66 16.55 136.66 17.80L136.66 17.80Q136.66 19.05 136.05 20.04Q135.44 21.04 134.38 21.60Q133.32 22.17 131.99 22.17L131.99 22.17Q130.66 22.17 129.59 21.60Q128.53 21.04 127.92 20.04Q127.32 19.05 127.32 17.80ZM129.72 17.80L129.72 17.80Q129.72 18.51 130.02 19.05Q130.32 19.60 130.84 19.90Q131.35 20.20 131.99 20.20L131.99 20.20Q132.62 20.20 133.14 19.90Q133.66 19.60 133.95 19.05Q134.25 18.51 134.25 17.80L134.25 17.80Q134.25 17.09 133.95 16.54Q133.66 16 133.14 15.70Q132.62 15.40 131.99 15.40L131.99 15.40Q131.35 15.40 130.83 15.70Q130.32 16 130.02 16.54Q129.72 17.09 129.72 17.80ZM147.93 18.03L147.93 18.03Q147.93 16.59 148.49 15.55Q149.04 14.51 150.05 13.97Q151.06 13.43 152.39 13.43L152.39 13.43Q153.11 13.43 153.76 13.59Q154.41 13.74 154.86 14.04L154.86 14.04L154.00 15.75Q153.39 15.31 152.45 15.31L152.45 15.31Q151.54 15.31 150.98 15.82Q150.41 16.32 150.33 17.27L150.33 17.27Q151.05 16.65 152.22 16.65L152.22 16.65Q153.01 16.65 153.67 16.98Q154.33 17.31 154.72 17.91Q155.11 18.52 155.11 19.30L155.11 19.30Q155.11 20.15 154.68 20.80Q154.24 21.46 153.49 21.82Q152.74 22.17 151.81 22.17L151.81 22.17Q150.01 22.17 148.97 21.10Q147.93 20.03 147.93 18.03ZM150.50 19.42L150.50 19.42Q150.50 19.89 150.81 20.18Q151.13 20.48 151.67 20.48L151.67 20.48Q152.18 20.48 152.49 20.19Q152.81 19.90 152.81 19.41L152.81 19.41Q152.81 18.93 152.49 18.64Q152.18 18.35 151.66 18.35L151.66 18.35Q151.15 18.35 150.82 18.65Q150.50 18.94 150.50 19.42ZM159.11 20.75L159.11 20.75Q159.11 20.15 159.50 19.78Q159.89 19.41 160.49 19.41L160.49 19.41Q161.08 19.41 161.47 19.78Q161.85 20.15 161.85 20.75L161.85 20.75Q161.85 21.34 161.46 21.72Q161.07 22.11 160.49 22.11L160.49 22.11Q159.91 22.11 159.51 21.72Q159.11 21.34 159.11 20.75ZM166.47 17.35L165.79 16.21L167.01 15.54L165.79 14.87L166.47 13.72L167.73 14.49L167.70 13.09L169.07 13.09L169.03 14.49L170.29 13.72L170.99 14.87L169.76 15.54L170.99 16.21L170.29 17.35L169.03 16.60L169.07 17.98L167.70 17.98L167.73 16.60L166.47 17.35Z" fill="#FF0000" x="66.28"/></svg>